<?xml version="1.0" encoding="UTF-8"?>
<svg id="Camada_1" xmlns="http://www.w3.org/2000/svg" viewBox="0 0 7.31 7.34">
  <defs>
    <style>
      .cls-1 {
        fill: #fff;
      }
    </style>
  </defs>
  <rect x="-.01" y="0" width="7.34" height="7.34" rx="1.71" ry="1.71" transform="translate(7.33 .01) rotate(90)"/>
  <g>
    <path class="cls-1" d="M4.98,2.07c-.16,0-.29.13-.29.29s.13.29.29.29.29-.13.29-.29-.13-.29-.29-.29Z"/>
    <path class="cls-1" d="M3.68,2.44c-.68,0-1.23.55-1.23,1.23s.55,1.23,1.23,1.23,1.23-.55,1.23-1.23-.55-1.23-1.23-1.23ZM3.68,4.46c-.43,0-.79-.35-.79-.79s.35-.79.79-.79.79.35.79.79-.35.79-.79.79Z"/>
    <path class="cls-1" d="M4.65,6.17h-1.99c-.83,0-1.5-.67-1.5-1.5v-1.99c0-.83.67-1.5,1.5-1.5h1.99c.83,0,1.5.67,1.5,1.5v1.99c0,.83-.67,1.5-1.5,1.5ZM2.66,1.64c-.57,0-1.03.46-1.03,1.03v1.99c0,.57.46,1.03,1.03,1.03h1.99c.57,0,1.03-.46,1.03-1.03v-1.99c0-.57-.46-1.03-1.03-1.03h-1.99Z"/>
  </g>
</svg>