<?xml version="1.0" encoding="UTF-8"?>
<svg id="Camada_1" xmlns="http://www.w3.org/2000/svg" viewBox="0 0 7.31 7.34">
  <defs>
    <style>
      .cls-1 {
        fill: #fff;
      }
    </style>
  </defs>
  <rect x="-.01" y="0" width="7.34" height="7.34" rx="1.71" ry="1.71" transform="translate(7.33 .01) rotate(90)"/>
  <g>
    <path class="cls-1" d="M3.66,1.08c.94,0,1.75.68,1.9,1.6.08.51-.02.98-.31,1.4-.47.69-.94,1.38-1.42,2.07-.11.16-.31.16-.42,0-.46-.71-.93-1.41-1.39-2.13-.67-1.06-.15-2.46,1.05-2.84.19-.06.38-.09.58-.09ZM3.63,5.59s.02-.03.03-.04c.39-.58.79-1.15,1.18-1.73.24-.35.31-.73.22-1.14-.2-.91-1.24-1.39-2.06-.96-.76.4-1.01,1.34-.55,2.06.31.48.63.96.94,1.44.08.12.16.24.24.37Z"/>
    <path class="cls-1" d="M3.66,3.96c-.53,0-.96-.43-.96-.96,0-.53.43-.97.96-.97.53,0,.96.43.96.97,0,.52-.43.95-.96.95ZM3.66,2.52c-.26,0-.48.21-.48.47,0,.27.21.48.48.48.27,0,.48-.21.48-.48,0-.26-.21-.48-.48-.48Z"/>
  </g>
</svg>