<?xml version="1.0" encoding="UTF-8"?>
<svg id="Camada_1" xmlns="http://www.w3.org/2000/svg" viewBox="0 0 7.31 7.34">
  <defs>
    <style>
      .cls-1 {
        fill: #fff;
      }
    </style>
  </defs>
  <rect x="-.01" y="0" width="7.34" height="7.34" rx="1.71" ry="1.71" transform="translate(7.33 .01) rotate(90)"/>
  <path class="cls-1" d="M5.73,5.42h0c-.5,0-1,0-1.5,0h-1.23s-1.4,0-1.4,0c-.29,0-.51-.15-.58-.41-.02-.07-.02-.14-.02-.19,0-.25,0-.5,0-.74,0-.51,0-1.02,0-1.53,0-.18.06-.34.17-.45.11-.11.28-.18.46-.17.48,0,.96,0,1.44,0h1.03s1.63,0,1.63,0c.29,0,.51.16.58.42.02.06.02.11.02.16,0,.24,0,.48,0,.71,0,.54,0,1.07,0,1.61,0,.16-.06.32-.17.43-.11.11-.26.17-.43.17ZM1.32,2.51s0,.02,0,.03c0,.76,0,1.51,0,2.27,0,.19.09.28.28.28h4.12s.03,0,.05,0c.13,0,.22-.1.22-.23,0-.78,0-1.57,0-2.35l-1.96,1.42c-.24.17-.51.17-.75,0l-1.96-1.41ZM1.54,2.26l1.91,1.38c.17.12.26.12.43,0l1.91-1.38s-.03,0-.05,0h-1.19s-2.95,0-2.95,0c-.03,0-.04,0-.05,0Z"/>
</svg>