<?xml version="1.0" encoding="UTF-8"?>
<svg id="Camada_1" xmlns="http://www.w3.org/2000/svg" viewBox="0 0 7.31 7.34">
  <defs>
    <style>
      .cls-1 {
        fill: #fff;
      }
    </style>
  </defs>
  <rect x="-.01" y="0" width="7.34" height="7.34" rx="1.71" ry="1.71" transform="translate(7.33 .01) rotate(90)"/>
  <g>
    <path class="cls-1" d="M3.59,6.13c-.74,0-1.49,0-2.23,0-.17,0-.25-.08-.25-.25,0-.72,0-1.44,0-2.16,0-.05-.01-.08-.05-.12-.14-.14-.23-.31-.21-.51.01-.12.06-.24.09-.36.1-.38.21-.76.31-1.14.06-.24.26-.39.51-.39,1.27,0,2.53,0,3.8,0,.25,0,.43.14.5.38.13.45.25.9.38,1.34.1.34-.07.63-.29.77-.06.04-.08.08-.08.15,0,.68,0,1.35,0,2.03,0,.06-.02.13-.05.18-.04.07-.11.08-.19.08-.75,0-1.49,0-2.24,0ZM5.02,3.43c-.3.54-1.06.55-1.37,0-.15.26-.38.41-.68.41-.3,0-.53-.15-.68-.41-.09.16-.21.27-.36.35-.16.08-.32.07-.49,0,0,.04,0,.06,0,.09,0,.61,0,1.23,0,1.84,0,.11,0,.12.12.12,1.36,0,2.72,0,4.09,0,.1,0,.11,0,.11-.11,0-.61,0-1.21,0-1.82,0-.02,0-.04,0-.06-.33.03-.55-.13-.72-.39ZM2.62,1.53c0,.08-.02.16-.03.24-.04.32-.07.64-.11.95-.01.12-.03.24-.02.36.03.26.28.45.55.43.26-.02.47-.25.47-.51,0-.46,0-.93,0-1.39,0-.03,0-.05,0-.08h-.86ZM3.83,1.53s0,.04,0,.05c0,.48,0,.95,0,1.43,0,.33.32.57.64.49.24-.06.41-.31.38-.55-.04-.27-.06-.54-.09-.81-.02-.2-.05-.4-.07-.61h-.86ZM2.3,1.52c-.19,0-.36,0-.53,0-.13,0-.24.09-.27.21-.11.4-.21.79-.31,1.19-.05.2.03.36.18.48.15.12.32.14.5.05.19-.1.26-.27.28-.48.03-.31.06-.61.09-.92.02-.17.04-.35.05-.53ZM5.01,1.53c0,.06,0,.11.01.16.03.24.05.49.08.73.02.22.04.45.07.67.04.29.31.47.59.41.22-.05.41-.33.36-.52-.1-.41-.21-.82-.32-1.24-.03-.11-.11-.2-.22-.21-.18-.01-.37,0-.56,0Z"/>
    <path class="cls-1" d="M5.21,4.97h-.41v-.31c.24,0,.48,0,.72,0,.13.45-.2.9-.67.93-.48.03-.85-.34-.85-.78,0-.44.36-.79.8-.78.19,0,.36.07.5.19-.07.07-.14.14-.22.21-.22-.14-.44-.14-.61.01-.17.16-.22.41-.11.61.12.2.34.29.57.23.15-.04.28-.18.27-.31Z"/>
  </g>
</svg>