<?xml version="1.0" encoding="UTF-8"?>
<svg id="Camada_1" xmlns="http://www.w3.org/2000/svg" viewBox="0 0 11.87 11.78">
  <defs>
    <style>
      .cls-1, .cls-2 {
        fill: #fff;
      }

      .cls-2 {
        fill-rule: evenodd;
      }
    </style>
  </defs>
  <g>
    <path class="cls-2" d="M10.27,3.14c.06.3.11.6.17.91-.98.03-1.94.05-2.9.08-.35,0-.71.03-1.06.01-.15,0-.3-.11-.44-.21-.84-.04-1.16.38-.88,1.12,1.35.05,2.01.41,2.27,1.28-1.74.33-3.48.66-5.22.99-.15-.83.43-1.55,1.72-2.04-.17-.29-.33-.57-.48-.83-1.23.3-1.94,1.23-1.9,2.41.01.24-.05.42-.31.45-.1.01-.17,0-.23-.04.28,1,.84,1.87,1.61,2.52-.12-.63-.24-1.26-.36-1.89l5.33-1.01c.22,1.19.45,2.38.68,3.59,1.67-.85,2.82-2.58,2.82-4.59,0-1.01-.29-1.95-.8-2.75Z"/>
    <path class="cls-2" d="M1.76,4.54c.42-.34.93-.57,1.43-.8.24-.11.36-.22.29-.49-.09-.34.07-.51.4-.55.1-.01.19-.03.29-.05.31-.07.51.04.54.37.03.28.17.34.43.27.25-.06.5-.1.78-.15-.1-.33.11-.39.32-.46.89-.32,1.77-.64,2.66-.97-.84-.6-1.86-.95-2.97-.95C3.1.76.8,3.05.8,5.89c0,.13,0,.26.02.39.07-.68.38-1.27.95-1.74Z"/>
    <path class="cls-2" d="M4.17,3.51c-.32.06-.52.36-.45.68.07.32.37.51.69.44.3-.07.49-.36.44-.66-.06-.32-.36-.52-.68-.46Z"/>
  </g>
  <path class="cls-1" d="M5.93,11.7C2.73,11.7.13,9.09.13,5.89S2.73.08,5.93.08s5.81,2.61,5.81,5.81-2.61,5.81-5.81,5.81ZM5.93.31C2.86.31.36,2.81.36,5.89s2.5,5.57,5.57,5.57,5.57-2.5,5.57-5.57S9.01.31,5.93.31Z"/>
</svg>