<?xml version="1.0" encoding="UTF-8"?>
<svg id="Camada_1" xmlns="http://www.w3.org/2000/svg" viewBox="0 0 7.31 7.34">
  <defs>
    <style>
      .cls-1 {
        fill: #fff;
        fill-rule: evenodd;
      }
    </style>
  </defs>
  <rect x="0" width="7.34" height="7.34" rx="1.71" ry="1.71" transform="translate(7.34 0) rotate(90)"/>
  <path class="cls-1" d="M5.21,4.27c-.17-.1-.39-.22-.59-.13-.15.06-.25.3-.35.43-.05.06-.11.07-.19.04-.58-.23-1.02-.62-1.34-1.15-.05-.08-.04-.15.02-.22.1-.11.22-.24.24-.4.03-.15-.05-.33-.11-.47-.08-.17-.17-.42-.35-.52-.16-.09-.37-.04-.52.08-.25.2-.37.52-.36.83,0,.09.01.18.03.26.05.21.15.4.25.58.08.14.17.27.26.4.31.42.7.79,1.14,1.06.22.14.46.26.71.34.28.09.53.19.83.13.32-.06.63-.26.75-.56.04-.09.06-.19.03-.29-.04-.2-.31-.31-.47-.41Z"/>
</svg>