<?xml version="1.0" encoding="UTF-8"?>
<svg xmlns="http://www.w3.org/2000/svg" version="1.1" viewBox="0 0 100 100">
  <defs>
    <style>
      .cls-1, .cls-2 {
        fill: #fff;
      }

      .cls-2 {
        fill-rule: evenodd;
      }
    </style>
  </defs>
  <!-- Generator: Adobe Illustrator 28.6.0, SVG Export Plug-In . SVG Version: 1.2.0 Build 709)  -->
  <g>
    <g id="Camada_1">
      <g>
        <path class="cls-1" d="M3.62,96.49l6.67-24.87c-3.77-6.81-5.76-14.44-5.76-22.19C4.53,24.11,25.13,3.51,50.45,3.51s45.92,20.6,45.92,45.92-20.6,45.92-45.92,45.92c-7.6,0-15.11-1.92-21.83-5.56l-25,6.7ZM29.87,80.47l1.57.94c5.78,3.44,12.35,5.27,19.01,5.27,20.53,0,37.24-16.71,37.24-37.24S70.99,12.19,50.45,12.19,13.21,28.9,13.21,49.43c0,6.78,1.88,13.46,5.45,19.31l.97,1.59-3.72,13.89,13.96-3.74Z"/>
        <path class="cls-2" d="M67.54,55.82c-1.89-1.13-4.35-2.39-6.58-1.48-1.71.7-2.8,3.37-3.91,4.74-.57.7-1.25.81-2.12.46-6.41-2.55-11.33-6.84-14.87-12.73-.6-.92-.49-1.64.23-2.49,1.07-1.26,2.41-2.69,2.7-4.38.29-1.7-.51-3.68-1.21-5.19-.9-1.93-1.9-4.68-3.83-5.77-1.78-1-4.12-.44-5.7.85-2.73,2.23-4.05,5.71-4.01,9.17.01.98.13,1.96.36,2.91.55,2.28,1.61,4.41,2.79,6.43.89,1.53,1.87,3.01,2.91,4.43,3.43,4.66,7.7,8.71,12.64,11.74,2.47,1.51,5.13,2.84,7.88,3.75,3.09,1.02,5.84,2.08,9.17,1.45,3.49-.66,6.93-2.82,8.32-6.19.41-1,.61-2.11.39-3.16-.47-2.18-3.42-3.47-5.18-4.52Z"/>
      </g>
    </g>
  </g>
</svg>