<?xml version="1.0" encoding="UTF-8"?>
<svg id="Camada_1" xmlns="http://www.w3.org/2000/svg" viewBox="0 0 7.31 7.34">
  <defs>
    <style>
      .cls-1, .cls-2 {
        fill: #fff;
      }

      .cls-2 {
        fill-rule: evenodd;
      }

      .cls-3 {
        fill: #009540;
      }
    </style>
  </defs>
  <rect class="cls-3" x="-.01" y="0" width="7.34" height="7.34" rx="1.71" ry="1.71" transform="translate(7.33 .01) rotate(90)"/>
  <g>
    <path class="cls-1" d="M1.37,5.96l.33-1.23c-.19-.34-.28-.71-.28-1.09,0-1.25,1.01-2.26,2.26-2.26s2.26,1.01,2.26,2.26-1.01,2.26-2.26,2.26c-.37,0-.74-.09-1.08-.27l-1.23.33ZM2.67,5.17l.08.05c.28.17.61.26.94.26,1.01,0,1.83-.82,1.83-1.83s-.82-1.83-1.83-1.83-1.83.82-1.83,1.83c0,.33.09.66.27.95l.05.08-.18.68.69-.18Z"/>
    <path class="cls-2" d="M4.52,3.96c-.09-.06-.21-.12-.32-.07-.08.03-.14.17-.19.23-.03.03-.06.04-.1.02-.32-.13-.56-.34-.73-.63-.03-.05-.02-.08.01-.12.05-.06.12-.13.13-.22.01-.08-.02-.18-.06-.26-.04-.1-.09-.23-.19-.28-.09-.05-.2-.02-.28.04-.13.11-.2.28-.2.45,0,.05,0,.1.02.14.03.11.08.22.14.32.04.08.09.15.14.22.17.23.38.43.62.58.12.07.25.14.39.18.15.05.29.1.45.07.17-.03.34-.14.41-.3.02-.05.03-.1.02-.16-.02-.11-.17-.17-.26-.22Z"/>
  </g>
</svg>